<?xml version="1.0" encoding="UTF-8"?>
<svg id="Layer_1" data-name="Layer 1" xmlns="http://www.w3.org/2000/svg" viewBox="0 0 562.41 74.58">
  <defs>
    <style>
      .cls-1 {
        fill: #a8b4c9;
      }
    </style>
  </defs>
  <g>
    <path class="cls-1" d="M458.63,11.44h-.02c.79-.09,1.42-.27,1.84-.56.62-.41,1-.96,1.15-1.62.15-.67.22-1.39.22-2.15v-3.73c0-.68-.08-1.25-.24-1.7-.16-.46-.5-.8-1-1.02s-1.29-.33-2.36-.33h-7.38v19.74h2.52v-8.57h2.92l3.95,8.57h2.7l-4.15-8.44-.15-.19ZM453.36,9.82V2.02h3.71c.89,0,1.49.16,1.8.48.31.32.46.91.46,1.78v2.99c0,.91-.22,1.57-.67,1.96-.45.39-1.1.59-1.97.59h-3.34Z"/>
    <path class="cls-1" d="M402.02,20.32c-1.75,0-3.06-.28-3.95-.85-.89-.57-1.33-1.36-1.33-2.39V3.25c0-.92.41-1.68,1.24-2.29.82-.61,2.17-.9,4.04-.88,1.92.02,3.29.33,4.11.91.82.59,1.24,1.34,1.24,2.26v13.84c0,1-.44,1.79-1.31,2.37-.87.58-2.22.87-4.04.87M402.02,18.56c1.04,0,1.8-.19,2.26-.56.46-.37.69-.86.69-1.46V3.8c0-.53-.21-.99-.62-1.38-.41-.38-1.2-.58-2.37-.58-1.09,0-1.84.19-2.24.56-.4.37-.6.83-.6,1.36v12.81c0,.58.23,1.05.69,1.42.46.37,1.19.56,2.18.56"/>
    <path class="cls-1" d="M469.27,20.19l4.73-19.86h3.24l4.7,19.86h-2.55l-1.09-4.68.47.38h-6.41l.4-.38-1.02,4.68h-2.48ZM472.84,14.43l-.25-.26h6.01l-.33.26-2.33-11.27-.07-.32h-.51l-.07.32-2.44,11.27Z"/>
    <polygon class="cls-1" points="491.04 2.04 487.07 2.04 487.07 .34 497.52 .34 497.52 2.04 493.52 2.04 493.52 20.2 491.04 20.2 491.04 2.04"/>
    <rect class="cls-1" x="504.66" y=".34" width="2.48" height="19.86"/>
    <path class="cls-1" d="M520.53,20.32c-1.75,0-3.06-.28-3.95-.85-.89-.57-1.33-1.36-1.33-2.39V3.25c0-.92.41-1.68,1.24-2.29.82-.61,2.17-.9,4.04-.88,1.92.02,3.29.33,4.11.91.82.59,1.24,1.34,1.24,2.26v13.84c0,1-.44,1.79-1.31,2.37-.87.58-2.22.87-4.04.87M520.53,18.56c1.04,0,1.8-.19,2.26-.56.46-.37.69-.86.69-1.46V3.8c0-.53-.21-.99-.62-1.38-.41-.38-1.2-.58-2.37-.58-1.09,0-1.84.19-2.24.56-.4.37-.6.83-.6,1.36v12.81c0,.58.23,1.05.69,1.42.46.37,1.19.56,2.18.56"/>
    <polygon class="cls-1" points="532.55 20.2 532.55 .34 535.03 .34 541.07 15.52 541.14 15.68 541.18 15.71 541.18 .34 543.62 .34 543.62 20.2 541.07 20.2 535.1 5.85 535.03 5.62 534.99 5.62 534.99 20.2 532.55 20.2"/>
    <path class="cls-1" d="M401.95,47.21c-1.63,0-2.83-.17-3.6-.5-.78-.33-1.28-.79-1.51-1.36-.23-.58-.35-1.22-.35-1.92v-3.59c0-.7.09-1.31.26-1.83.17-.51.55-.92,1.15-1.23.6-.31,1.5-.49,2.71-.53-1.12-.04-1.97-.18-2.55-.42-.58-.23-.97-.58-1.17-1.04-.19-.46-.29-1.04-.29-1.75v-2.72c0-.94.16-1.64.47-2.11.32-.47.86-.78,1.64-.93.78-.15,1.83-.22,3.17-.22s2.45.08,3.2.24c.75.16,1.28.47,1.58.94.3.47.46,1.16.46,2.08v2.67h-2.4v-2.06c0-.47-.07-.84-.2-1.12-.13-.28-.41-.47-.82-.59-.41-.12-1.06-.18-1.93-.18-.8,0-1.4.05-1.8.16-.4.11-.67.29-.8.54-.13.26-.2.6-.2,1.03v1.42c0,.79.07,1.4.22,1.83.15.43.49.71,1.02.86.53.15,1.35.23,2.44.26h1.6v2.04h-1.6c-1.07.02-1.87.14-2.4.35-.53.21-.89.56-1.06,1.03-.17.47-.27,1.12-.29,1.95v2.59c0,.26.02.53.05.82.04.29.13.55.29.77.16.22.43.41.82.54.39.14.95.21,1.68.21.78,0,1.37-.07,1.78-.21.41-.14.7-.33.87-.56.17-.23.27-.49.29-.77.02-.28.04-.54.04-.8v-3.64h3.42v1.63h-.94v1.43c0,.68-.04,1.31-.13,1.89-.09.58-.3,1.07-.64,1.49-.34.42-.86.74-1.57.96-.7.22-1.67.34-2.91.34"/>
    <polygon class="cls-1" points="432.4 27.42 434.88 27.42 434.88 45.58 441.94 45.58 441.94 47.28 432.4 47.28 432.4 27.42"/>
    <path class="cls-1" d="M446.42,47.28l4.73-19.86h3.24l4.7,19.86h-2.55l-1.09-4.68.47.38h-6.41l.4-.38-1.02,4.68h-2.48ZM449.99,41.51l-.25-.26h6.01l-.33.26-2.33-11.27-.07-.32h-.51l-.07.32-2.44,11.27Z"/>
    <polygon class="cls-1" points="466.54 29.12 462.57 29.12 462.57 27.42 473.02 27.42 473.02 29.12 469.02 29.12 469.02 47.28 466.54 47.28 466.54 29.12"/>
    <path class="cls-1" d="M500.15,47.4c-1.75,0-3.06-.28-3.95-.85-.89-.57-1.33-1.36-1.33-2.39v-13.84c0-.92.41-1.68,1.24-2.29.82-.61,2.17-.9,4.04-.88,1.92.02,3.29.33,4.11.91.83.59,1.24,1.34,1.24,2.26v13.84c0,1-.44,1.79-1.31,2.37-.87.58-2.22.87-4.04.87M500.15,45.64c1.04,0,1.8-.19,2.26-.56.46-.37.69-.86.69-1.46v-12.75c0-.53-.21-.99-.62-1.38-.41-.38-1.2-.58-2.37-.58-1.09,0-1.84.19-2.24.56-.4.37-.6.83-.6,1.36v12.81c0,.58.23,1.05.69,1.42.46.37,1.19.56,2.18.56"/>
    <path class="cls-1" d="M511.66,27.42h7.24c1.04,0,1.81.11,2.31.34.5.22.83.57.98,1.03.16.46.24,1.03.24,1.71v3.75c0,.77-.07,1.49-.22,2.16-.15.67-.52,1.22-1.13,1.63-.61.42-1.6.62-2.99.62h-3.97v8.62h-2.47v-19.86ZM517.41,36.96c.85,0,1.49-.2,1.93-.59.44-.39.65-1.05.65-1.97v-3.01c0-.88-.15-1.47-.45-1.79-.3-.32-.89-.48-1.77-.48h-3.64v7.85h3.28Z"/>
    <polygon class="cls-1" points="529.35 47.28 529.35 27.42 532.48 27.42 537.47 41.93 537.51 42.06 537.55 42.06 537.58 41.93 542.57 27.42 545.74 27.42 545.74 47.28 543.26 47.28 543.26 31.97 543.23 31.9 543.19 32.38 538.53 45.1 536.53 45.1 531.9 32.48 531.87 32.09 531.83 32.03 531.83 47.28 529.35 47.28"/>
    <path class="cls-1" d="M454.11,74.58c-1.75,0-3.06-.29-3.95-.88-.89-.59-1.33-1.44-1.33-2.55v-13.19c0-1.26.41-2.19,1.22-2.79.81-.6,2.13-.9,3.95-.9s3.17.29,4.06.88c.89.59,1.33,1.53,1.33,2.83v4.37h-2.44v-3.86c0-.77-.19-1.37-.58-1.81-.39-.44-1.15-.66-2.29-.66s-1.86.22-2.22.67c-.36.45-.55,1.04-.55,1.76v12.17c0,.62.21,1.13.64,1.54.42.41,1.13.61,2.13.61,1.04,0,1.78-.2,2.22-.61.44-.41.66-.92.66-1.54v-3.96h2.44v4.44c0,1.13-.46,1.99-1.36,2.58-.91.59-2.22.88-3.91.88"/>
    <rect class="cls-1" x="466.34" y="54.5" width="2.48" height="19.86"/>
    <path class="cls-1" d="M474.93,74.36l4.73-19.86h3.24l4.7,19.86h-2.55l-1.09-4.68.47.38h-6.41l.4-.38-1.02,4.68h-2.48ZM478.5,68.59l-.25-.26h6.01l-.33.26-2.33-11.27-.07-.32h-.51l-.07.32-2.44,11.27Z"/>
    <polygon class="cls-1" points="493.75 54.5 496.23 54.5 496.23 72.66 503.29 72.66 503.29 74.36 493.75 74.36 493.75 54.5"/>
    <rect class="cls-1" x="509.34" y="54.5" width="2.48" height="19.86"/>
    <polygon class="cls-1" points="539.05 56.2 535.08 56.2 535.08 54.5 545.53 54.5 545.53 56.2 541.52 56.2 541.52 74.36 539.05 74.36 539.05 56.2"/>
    <path class="cls-1" d="M398.01,19.28c.9.56,2.25.84,4.03.84s3.23-.29,4.12-.86c.89-.57,1.34-1.36,1.34-2.36V3.15c0-.91-.42-1.66-1.26-2.24-.84-.58-2.24-.89-4.19-.91-1.91-.02-3.28.27-4.12.88-.84.61-1.26,1.36-1.26,2.28v13.76c0,1.02.45,1.81,1.35,2.37M399.11,3.66c0-.53.2-.98.61-1.35.41-.37,1.17-.56,2.28-.56,1.19,0,1.99.19,2.41.57.42.38.63.84.63,1.37v12.67c0,.59-.24,1.08-.71,1.45-.47.37-1.24.56-2.3.56s-1.76-.19-2.23-.56c-.47-.37-.7-.84-.7-1.42V3.66Z"/>
    <path class="cls-1" d="M425.82.7c-.51-.22-1.29-.33-2.36-.33h-7.38v19.74h2.52v-8.47h4.05c1.41,0,2.42-.21,3.04-.62.62-.41,1-.96,1.15-1.62.15-.67.22-1.39.22-2.15v-3.83c0-.68-.08-1.25-.24-1.7-.16-.46-.5-.8-1-1.02M424.57,7.41c0,.91-.22,1.57-.67,1.96-.45.39-1.1.59-1.97.59h-3.34V2.05h3.71c.89,0,1.49.16,1.8.48.31.32.46.91.46,1.78v3.09Z"/>
    <path class="cls-1" d="M424.99,54.92c-.51-.22-1.29-.33-2.36-.33h-7.38v19.74h2.52v-8.47h4.05c1.41,0,2.42-.21,3.04-.62.62-.41,1-.96,1.15-1.62.15-.67.22-1.39.22-2.15v-3.83c0-.68-.08-1.25-.24-1.7-.16-.46-.5-.8-1-1.02M423.74,61.62c0,.91-.22,1.57-.67,1.96-.45.39-1.1.59-1.97.59h-3.34v-7.9h3.71c.89,0,1.49.16,1.8.48.31.32.46.91.46,1.78v3.09Z"/>
    <path class="cls-1" d="M425.73,27.84c-.51-.22-1.29-.33-2.36-.33h-7.38v19.74h2.52v-8.47h4.05c1.41,0,2.42-.21,3.04-.62.62-.41,1-.96,1.15-1.62.15-.67.22-1.39.22-2.15v-3.83c0-.68-.08-1.25-.24-1.7-.16-.46-.5-.8-1-1.02M424.49,34.55c0,.91-.22,1.57-.67,1.96-.45.39-1.1.59-1.97.59h-3.34v-7.9h3.71c.89,0,1.49.16,1.8.48.31.32.46.91.46,1.78v3.09Z"/>
    <polygon class="cls-1" points="444.18 18.38 436.41 18.38 436.41 11.37 443.28 11.37 443.28 9.69 436.41 9.69 436.41 2.02 444.18 2.02 444.18 .33 433.89 .33 433.89 20.07 444.18 20.07 444.18 18.38"/>
    <polygon class="cls-1" points="488.82 36.87 482.08 36.87 482.08 29.19 489.72 29.19 489.72 27.51 479.55 27.51 479.55 47.25 482.08 47.25 482.08 38.55 488.82 38.55 488.82 36.87"/>
    <path class="cls-1" d="M519.47,38.45h-.02c.79-.09,1.42-.27,1.84-.56.62-.41,1-.96,1.15-1.62.15-.67.22-1.39.22-2.15v-3.73c0-.68-.08-1.25-.24-1.7-.16-.46-.5-.8-1-1.02s-1.29-.33-2.36-.33h-7.38v19.74h2.52v-8.57h2.92l3.95,8.57h2.7l-4.15-8.44-.15-.19ZM514.2,36.83v-7.8h3.71c.89,0,1.49.16,1.8.48.31.32.46.91.46,1.78v2.99c0,.91-.22,1.57-.67,1.96-.45.39-1.1.59-1.97.59h-3.34Z"/>
    <path class="cls-1" d="M527,54.63c-.78-.15-1.69-.22-2.73-.22s-2.06.07-2.91.22c-.85.15-1.52.45-2,.89-.48.45-.72,1.13-.72,2.04v3.69c0,.96.24,1.66.72,2.12.48.46,1.28.83,2.39,1.13l2.78.67c.82.21,1.43.55,1.84,1,.41.46.61,1.05.61,1.77v2.67c0,.49-.07.89-.22,1.19-.15.31-.43.54-.84.68-.41.15-1,.22-1.76.22-1.16,0-1.96-.14-2.39-.43-.43-.29-.65-.7-.65-1.23v-2.64h-2.49v3.47c0,.68.25,1.21.74,1.58.49.37,1.17.62,2.02.75.85.13,1.82.2,2.91.22,1.06-.02,1.98-.11,2.75-.27.77-.16,1.36-.47,1.78-.92.42-.46.63-1.14.63-2.05v-3.88c0-.98-.24-1.71-.72-2.21-.48-.5-1.31-.9-2.47-1.19l-2.97-.73c-.67-.17-1.2-.46-1.6-.86-.4-.4-.59-.91-.59-1.53v-2.45c0-.85.23-1.44.69-1.77.46-.33,1.24-.49,2.36-.49s1.89.14,2.26.41c.37.28.56.76.56,1.46v2.51h2.49v-3.5c0-.68-.22-1.2-.65-1.56-.43-.36-1.04-.62-1.82-.76"/>
    <path class="cls-1" d="M405.32,54.66c-.78-.15-1.69-.22-2.73-.22s-2.06.07-2.91.22c-.85.15-1.52.45-2,.89-.48.45-.72,1.13-.72,2.04v3.69c0,.96.24,1.66.72,2.12.48.46,1.28.83,2.39,1.13l2.78.67c.82.21,1.43.55,1.84,1,.41.46.61,1.05.61,1.77v2.67c0,.49-.07.89-.22,1.19-.15.31-.43.54-.84.68-.41.15-1,.22-1.76.22-1.16,0-1.96-.14-2.39-.43-.43-.29-.65-.7-.65-1.23v-2.64h-2.49v3.47c0,.68.25,1.21.74,1.58.49.37,1.17.62,2.02.75.85.13,1.82.2,2.91.22,1.06-.02,1.98-.11,2.75-.27.77-.16,1.36-.47,1.78-.92.42-.46.63-1.14.63-2.05v-3.88c0-.98-.24-1.71-.72-2.21-.48-.5-1.31-.9-2.47-1.19l-2.97-.73c-.67-.17-1.2-.46-1.6-.86-.4-.4-.59-.91-.59-1.53v-2.45c0-.85.23-1.44.69-1.77.46-.33,1.24-.49,2.36-.49s1.89.14,2.26.41c.37.28.56.76.56,1.46v2.51h2.49v-3.5c0-.68-.22-1.2-.65-1.56-.43-.36-1.04-.62-1.82-.76"/>
    <path class="cls-1" d="M559.76.54c-.78-.15-1.69-.22-2.73-.22s-2.06.07-2.91.22c-.85.15-1.52.45-2,.89-.48.45-.72,1.13-.72,2.04v3.69c0,.96.24,1.66.72,2.12.48.46,1.28.83,2.39,1.13l2.78.67c.82.21,1.43.55,1.84,1,.41.46.61,1.05.61,1.77v2.67c0,.49-.07.89-.22,1.19-.15.31-.43.54-.84.68-.41.15-1,.22-1.76.22-1.16,0-1.96-.14-2.39-.43-.43-.29-.65-.7-.65-1.23v-2.64h-2.49v3.47c0,.68.25,1.21.74,1.58.49.37,1.17.62,2.02.75.85.13,1.82.2,2.91.22,1.06-.02,1.98-.11,2.75-.27.77-.16,1.36-.47,1.78-.92.42-.46.63-1.14.63-2.05v-3.88c0-.98-.24-1.71-.72-2.21-.48-.5-1.31-.9-2.47-1.19l-2.97-.73c-.67-.17-1.2-.46-1.6-.86-.4-.4-.59-.91-.59-1.53v-2.45c0-.85.23-1.44.69-1.77.46-.33,1.24-.49,2.36-.49s1.89.14,2.26.41c.37.28.56.76.56,1.46v2.51h2.49v-3.5c0-.68-.22-1.2-.65-1.56-.43-.36-1.04-.62-1.82-.76"/>
    <path class="cls-1" d="M559.97,27.61c-.78-.16-1.69-.24-2.72-.25-1.09-.01-2.06.05-2.92.19-.86.14-1.53.43-2.01.87-.49.44-.74,1.12-.74,2.03l-.04,3.69c0,.96.23,1.66.7,2.12.48.46,1.27.85,2.38,1.15l2.78.7c.81.22,1.42.56,1.83,1.02.4.46.6,1.05.6,1.77l-.03,2.67c0,.49-.08.89-.23,1.19-.15.31-.43.53-.84.68-.41.14-1,.21-1.77.21-1.16-.01-1.96-.16-2.39-.45-.43-.29-.64-.7-.64-1.23l.03-2.64-2.49-.02-.03,3.47c0,.68.23,1.21.73,1.58.49.38,1.16.63,2.01.77.85.14,1.82.22,2.91.25,1.06-.01,1.98-.09,2.75-.24s1.36-.45,1.79-.91c.42-.45.64-1.13.65-2.05l.04-3.88c0-.98-.22-1.72-.7-2.22-.48-.5-1.3-.91-2.46-1.22l-2.96-.76c-.67-.18-1.2-.47-1.59-.88-.39-.41-.59-.92-.58-1.53l.02-2.45c0-.85.24-1.44.7-1.76.46-.32,1.25-.48,2.36-.47,1.14.01,1.89.16,2.26.44.37.28.55.77.54,1.47l-.02,2.51,2.49.02.03-3.5c0-.68-.2-1.2-.63-1.57-.43-.37-1.03-.63-1.81-.78"/>
    <path class="cls-1" d="M559.76,54.66c-.78-.15-1.69-.22-2.73-.22s-2.06.07-2.91.22c-.85.15-1.52.45-2,.89-.48.45-.72,1.13-.72,2.04v3.69c0,.96.24,1.66.72,2.12.48.46,1.28.83,2.39,1.13l2.78.67c.82.21,1.43.55,1.84,1,.41.46.61,1.05.61,1.77v2.67c0,.49-.07.89-.22,1.19-.15.31-.43.54-.84.68-.41.15-1,.22-1.76.22-1.16,0-1.96-.14-2.39-.43-.43-.29-.65-.7-.65-1.23v-2.64h-2.49v3.47c0,.68.25,1.21.74,1.58.49.37,1.17.62,2.02.75.85.13,1.82.2,2.91.22,1.06-.02,1.98-.11,2.75-.27.77-.16,1.36-.47,1.78-.92.42-.46.63-1.14.63-2.05v-3.88c0-.98-.24-1.71-.72-2.21-.48-.5-1.31-.9-2.47-1.19l-2.97-.73c-.67-.17-1.2-.46-1.6-.86-.4-.4-.59-.91-.59-1.53v-2.45c0-.85.23-1.44.69-1.77.46-.33,1.24-.49,2.36-.49s1.89.14,2.26.41c.37.28.56.76.56,1.46v2.51h2.49v-3.5c0-.68-.22-1.2-.65-1.56-.43-.36-1.04-.62-1.82-.76"/>
    <polygon class="cls-1" points="441.8 72.57 434.02 72.57 434.02 65.56 440.9 65.56 440.9 63.88 434.02 63.88 434.02 56.2 441.8 56.2 441.8 54.52 431.5 54.52 431.5 74.26 441.8 74.26 441.8 72.57"/>
  </g>
  <path class="cls-1" d="M152.59.81h-67.35c-8.58,0-15.55,6.98-15.55,15.55v11.01c0,8.59,6.98,15.57,15.55,15.57h67.36c8.58,0,15.55-6.98,15.55-15.57v-11c0-8.58-6.98-15.57-15.57-15.57M157.02,32.86c0,1.27-1.03,2.3-2.3,2.3h-71.62c-1.27,0-2.3-1.03-2.3-2.3V10.88c0-1.27,1.03-2.3,2.3-2.3h71.62c1.27,0,2.3,1.03,2.3,2.3v21.98Z"/>
  <path class="cls-1" d="M258.84.81h-67.35c-8.59,0-15.57,6.99-15.57,15.57v38.03c0,.57.46,1.03,1.03,1.03h9.09c.57,0,1.03-.46,1.03-1.03v-11.49h71.79c8.58,0,15.55-6.98,15.55-15.56v-10.97c0-8.58-6.98-15.57-15.56-15.57M263.27,32.94c0,1.23-1,2.22-2.22,2.22h-71.78c-1.22,0-2.22-.99-2.22-2.22V10.8c0-1.23,1-2.22,2.22-2.22h71.78c1.22,0,2.22.99,2.22,2.22v22.14Z"/>
  <path class="cls-1" d="M382.98,50.73v7.48c0,8.59-6.96,15.56-15.56,15.56h-128.17c-.57,0-1.03-.46-1.03-1.03v-5.71c0-.57.46-1.03,1.03-1.03h130.13c1.37,0,2.49-1.12,2.49-2.49v-18.14c0-1.37-1.11-2.48-2.48-2.48h-71.68c-8.59,0-15.56-6.96-15.56-15.55v-10.98c0-8.6,6.97-15.57,15.57-15.57h65.35c.57,0,1.03.46,1.03,1.03v5.72c0,.57-.46,1.03-1.03,1.03h-67.27c-1.37,0-2.49,1.11-2.49,2.49v21.63c0,1.36,1.1,2.47,2.47,2.47h71.63c8.6,0,15.56,6.97,15.56,15.57"/>
  <path class="cls-1" d="M60.18,12.45c0-.23-.19-.42-.42-.42h-19.29c-.47,0-.84-.35-.84-.77v-3.8c0-.54.44-.98.98-.98h19.62c.23,0,.42-.19.42-.42v-3.64c0-.23-.19-.42-.42-.42h-24.24c-.95,0-1.73.77-1.73,1.73v20.83c0,.95.77,1.73,1.73,1.73h24.24c.23,0,.42-.19.42-.42v-3.79c0-.23-.19-.42-.42-.42h-19.62c-.54,0-.98-.44-.98-.99v-3.91c0-.43.38-.77.84-.77h19.29c.23,0,.42-.19.42-.42v-3.09Z"/>
  <path class="cls-1" d="M12.14,1.96c-.33,0-.59.29-.59.64v17.6c0,.47-.4.84-.9.84h-4.86c-.64,0-1.16-.52-1.16-1.16V2.18c0-.19-.15-.34-.34-.34H.34c-.19,0-.34.15-.34.34v21.33c0,1.6,1.29,2.89,2.89,2.89h22.14c1.6,0,2.9-1.3,2.9-2.9V2.18c0-.19-.15-.34-.34-.34h-3.94c-.19,0-.34.15-.34.34v17.7c0,.64-.52,1.16-1.16,1.16h-5.12c-.5,0-.9-.38-.9-.84V2.6c0-.35-.27-.64-.59-.64h-3.4Z"/>
</svg>