<?xml version="1.0" encoding="UTF-8"?>
<svg id="Layer_1" data-name="Layer 1" xmlns="http://www.w3.org/2000/svg" viewBox="0 0 382.98 72.96">
  <defs>
    <style>
      .cls-1 {
        fill: #a8b4c9;
      }
    </style>
  </defs>
  <path class="cls-1" d="M152.59,0h-67.35C76.66,0,69.68,6.98,69.68,15.56v11.01c0,8.59,6.98,15.57,15.55,15.57h67.36c8.58,0,15.55-6.98,15.55-15.57v-11C168.16,6.99,161.18,0,152.59,0M157.02,32.05c0,1.27-1.03,2.3-2.3,2.3h-71.62c-1.27,0-2.3-1.03-2.3-2.3V10.07c0-1.27,1.03-2.3,2.3-2.3h71.62c1.27,0,2.3,1.03,2.3,2.3v21.98Z"/>
  <path class="cls-1" d="M258.84,0h-67.35c-8.59,0-15.57,6.99-15.57,15.57v38.03c0,.57.46,1.03,1.03,1.03h9.09c.57,0,1.03-.46,1.03-1.03v-11.49h71.79c8.58,0,15.55-6.98,15.55-15.56v-10.97C274.4,6.99,267.42,0,258.84,0M263.27,32.13c0,1.23-1,2.22-2.22,2.22h-71.78c-1.22,0-2.22-.99-2.22-2.22V9.99c0-1.23,1-2.22,2.22-2.22h71.78c1.22,0,2.22.99,2.22,2.22v22.14Z"/>
  <path class="cls-1" d="M382.98,49.93v7.48c0,8.59-6.96,15.56-15.56,15.56h-128.17c-.57,0-1.03-.46-1.03-1.03v-5.71c0-.57.46-1.03,1.03-1.03h130.13c1.37,0,2.49-1.12,2.49-2.49v-18.14c0-1.37-1.11-2.48-2.48-2.48h-71.68c-8.59,0-15.56-6.96-15.56-15.55v-10.98c0-8.6,6.97-15.57,15.57-15.57h65.35c.57,0,1.03.46,1.03,1.03v5.72c0,.57-.46,1.03-1.03,1.03h-67.27c-1.37,0-2.49,1.11-2.49,2.49v21.63c0,1.36,1.1,2.47,2.47,2.47h71.63c8.6,0,15.56,6.97,15.56,15.57"/>
  <path class="cls-1" d="M60.18,11.64c0-.23-.19-.42-.42-.42h-19.29c-.47,0-.84-.35-.84-.77v-3.8c0-.54.44-.98.98-.98h19.62c.23,0,.42-.19.42-.42V1.59c0-.23-.19-.42-.42-.42h-24.24c-.95,0-1.73.77-1.73,1.73v20.83c0,.95.77,1.73,1.73,1.73h24.24c.23,0,.42-.19.42-.42v-3.79c0-.23-.19-.42-.42-.42h-19.62c-.54,0-.98-.44-.98-.99v-3.91c0-.43.38-.77.84-.77h19.29c.23,0,.42-.19.42-.42v-3.09Z"/>
  <path class="cls-1" d="M12.14,1.15c-.33,0-.59.29-.59.64v17.6c0,.47-.4.84-.9.84h-4.86c-.64,0-1.16-.52-1.16-1.16V1.37c0-.19-.15-.34-.34-.34H.34c-.19,0-.34.15-.34.34v21.33c0,1.6,1.29,2.89,2.89,2.89h22.14c1.6,0,2.9-1.3,2.9-2.9V1.37c0-.19-.15-.34-.34-.34h-3.94c-.19,0-.34.15-.34.34v17.7c0,.64-.52,1.16-1.16,1.16h-5.12c-.5,0-.9-.38-.9-.84V1.79c0-.35-.27-.64-.59-.64h-3.4Z"/>
</svg>