<?xml version="1.0" encoding="UTF-8"?>
<svg id="Layer_1" data-name="Layer 1" xmlns="http://www.w3.org/2000/svg" viewBox="0 0 135.82 274.45">
  <defs>
    <style>
      .cls-1 {
        fill: #1b1c1f;
      }
    </style>
  </defs>
  <path class="cls-1" d="M109.78,49.12H20.88C9.56,49.12.35,58.33.35,69.65v14.53c0,11.33,9.21,20.54,20.53,20.54h88.91c11.32,0,20.53-9.21,20.53-20.54v-14.52c0-11.32-9.21-20.54-20.54-20.54M115.63,91.42c0,1.67-1.36,3.03-3.03,3.03H18.07c-1.67,0-3.03-1.36-3.03-3.03v-29.01c0-1.67,1.36-3.03,3.03-3.03h94.52c1.67,0,3.03,1.36,3.03,3.03v29.01Z"/>
  <path class="cls-1" d="M109.67,125.41H20.77c-11.33,0-20.54,9.22-20.54,20.54v50.19c0,.75.61,1.36,1.36,1.36h11.99c.75,0,1.36-.61,1.36-1.36v-15.17h94.75c11.32,0,20.53-9.21,20.53-20.54v-14.48c0-11.32-9.21-20.54-20.54-20.54M115.52,167.81c0,1.62-1.32,2.92-2.92,2.92H17.86c-1.61,0-2.92-1.3-2.92-2.92v-29.22c0-1.62,1.32-2.93,2.92-2.93h94.74c1.61,0,2.92,1.3,2.92,2.93v29.22Z"/>
  <path class="cls-1" d="M135.82,254v-.08c0,11.34-9.19,20.53-20.53,20.53H1.36c-.75,0-1.36-.61-1.36-1.36v-7.54c0-.75.61-1.36,1.36-1.36h116.52c1.8,0,3.28-1.48,3.28-3.28v-13.98c0-1.8-1.46-3.27-3.27-3.27H36.46c-11.34,0-20.53-9.19-20.53-20.53v-.47c0-11.35,9.2-20.54,20.54-20.54h88.49c.75,0,1.36.61,1.36,1.36v7.55c0,.75-.61,1.36-1.36,1.36H33.94c-1.81,0-3.28,1.47-3.28,3.28v14.53c0,1.8,1.46,3.26,3.25,3.26h81.37c11.35,0,20.54,9.2,20.54,20.54"/>
  <path class="cls-1" d="M104.6,13.86c0-.34-.23-.62-.52-.62h-24.84c-.57,0-1.03-.51-1.03-1.13v-4.36c0-.67.54-1.2,1.21-1.2h25.24c.29,0,.52-.23.52-.52V.69c0-.28-.23-.52-.52-.52h-30.89c-1.17,0-2.11.95-2.11,2.11v27.98c0,1.17.94,2.11,2.11,2.11h30.89c.29,0,.52-.23.52-.52v-5.33c0-.29-.23-.52-.52-.52h-25.24c-.67,0-1.21-.54-1.21-1.21v-4.68c0-.63.46-1.13,1.03-1.13h24.84c.29,0,.52-.28.52-.62v-4.52Z"/>
  <path class="cls-1" d="M40.94.5c-.48,0-.87.35-.87.78v23.68c0,.57-.59,1.03-1.33,1.03h-5.58c-.78,0-1.41-.63-1.41-1.41V.42c0-.23-.19-.42-.42-.42h-5.65c-.23,0-.42.19-.42.42v28.59c0,1.95,1.58,3.54,3.54,3.54h29.58c1.96,0,3.54-1.59,3.54-3.54V.42c0-.23-.19-.42-.42-.42h-5.78c-.23,0-.42.19-.42.42v24.16c0,.78-.63,1.41-1.41,1.41h-5.77c-.73,0-1.33-.46-1.33-1.03V1.28c0-.43-.39-.78-.87-.78h-5Z"/>
</svg>